<svg xmlns="http://www.w3.org/2000/svg" width="162" height="162"><path fill="#EBFBF1" d="M56.6 15.5h30.3v30.3H56.6z"/><circle fill="#DF484A" cx="79.2" cy="28.7" r="7.4"/><path fill="#131A26" d="M101.6 38.1h-28c-3.5 0-6.4-2.9-6.4-6.4s2.9-6.4 6.4-6.4h27.8c3.5 0 6.4 2.9 6.4 6.4 0 .9-.1 1.8-.5 2.5l1.7.8c.4-1 .6-2.1.6-3.3 0-4.7-3.8-8.4-8.4-8.4H73.6c-4.7 0-8.4 3.8-8.4 8.4s3.8 8.4 8.4 8.4h27.8c.4 0 .8 0 1.1-.1l-.9-1.9z"/><path fill="#131A26" d="M111.9 38l-10.2-4.3 3.9 10.3 1.8-3 2.9 3 1.4-1.4-2.9-3zm-31.8-5.7l.6-3.5h1.8l-1.4 5.9h-1.5l-1-3.5-1 3.5h-1.5l-1.5-5.9h1.8l.6 3.5.9-3.5h1.3l.9 3.5zm8.7 0l.6-3.5h1.8l-1.5 5.9h-1.5l-1-3.5-1 3.5h-1.5l-1.4-5.9H85l.6 3.5.9-3.5h1.3l1 3.5zm8.5 0l.6-3.5h1.8l-1.4 5.9h-1.5l-1-3.5-1 3.5h-1.5l-1.4-5.9h1.8l.6 3.5.9-3.5h1.3l.8 3.5z"/><path fill="none" stroke="#131A26" stroke-width="1.313" stroke-linecap="round" stroke-linejoin="round" stroke-miterlimit="10" d="M119.3 85.3l-.7-11m17.6 11l.7-11"/><path fill="#DF484A" d="M145.3 90.5c-2.9 0-5.2-2.3-5.2-5.2 0-2.9 2.3-5.2 5.2-5.2 2.9 0 5.2 2.3 5.2 5.2.1 2.9-2.2 5.2-5.2 5.2z"/><path fill="none" stroke="#DF484A" stroke-width="1.313" stroke-linecap="round" stroke-linejoin="round" stroke-miterlimit="10" d="M145.1 73.2v4.2m0 16.9v4m12.5-12.5h-4.1m-16.8 0h-4.2m19.6-7.1l-2.2 2.3m-9.6 9.6l-2.4 2.4m14.2 0l-2.2-2.4m-9.6-9.6l-2.4-2.3"/><path fill="#FFF" d="M128.1 84.7h17.4V96h-17.4z"/><path fill="#131A26" d="M115.6 99.1c-1.5-.7-1.8-1.4-1.5-3.1.5-2.6 1-5.1 1.5-7.7.3-1.6 1.2-2.6 2.8-3.1 1.8-.5 3.5-1.2 5.2-1.8.2-.1.5-.3.5-.4 0-.4.2-1-.3-1.4-1.7-1.1-2.8-2.6-3.2-4.5-.1-.3-.1-.5-.2-.9-.3-.1-.6-.1-1-.3-1.1-.4-1.6-1.5-1.3-2.6.1-.3.1-.5.1-.9.1-1.5.1-2.9.3-4.4.1-.9.5-1.7 1-2.6.1-.3.4-.5.9-.4.4.2.4.5.2 1-1.1 1.8-1.2 3.8-1.1 5.9.6 0 1.1-.1 1.3-.9.4-1.2 1.6-1.7 2.8-1.6 1.8.2 3.5.1 5.2-.6.7-.3 1.4-.7 2-1.2.9-.6 1.4-.5 2 .3.4.5.9 1 1.6 1.1.6.1.9.4.9 1.1v1.6c.3.1.6.1 1.1.2-.1-1.8.2-3.6-.3-5.4-.2-.7-.7-1.4-1.5-1.8-.1-.1-.3-.2-.4-.3-2.6-3-8.1-3.7-11.7-.7-.3.3-.7.7-1.2.3-.4-.5.1-.9.4-1.2 1.4-1.2 3-1.8 4.7-2.1.1 0 .3-.1.4-.1h2c1 .3 2 .4 3 .9s1.9 1.3 2.8 1.9c.2.1.3.3.4.4 1.5 1 2.1 2.3 2.2 3.9.1 1.3 0 2.6.1 3.8 0 .6.1 1.4.2 2 .1 1-.4 1.9-1.3 2.2-.3.1-.6.2-1 .2-.3.9-.5 1.7-.9 2.6-.5 1.2-1.4 2-2.5 2.8-.6.4-.3 1-.3 1.5 0 .2.4.4.6.5.5.1 1 .2 1.5.2h10.8c1.3 0 1.8.5 1.8 1.8v1.6c0 .4-.2.7-.5.6-.2 0-.5-.4-.5-.6-.1-.5 0-1.2 0-1.7 0-.4-.1-.6-.6-.6h-15.3c-.4 0-.6.2-.6.6v9.7c0 .4.2.6.6.6h15.3c.4 0 .6-.2.6-.6v-4.7c0-.2 0-.4.1-.5.1-.2.3-.4.5-.4s.4.2.5.4c.1.2 0 .4 0 .7v5.1c.1 0 .1.1.1.1 1 .2 1.4.5 1.5 1.2.1.7-.3 1.6-1.1 1.9-.1.1-.2.1-.4.2H132c-.1-.2-.3-.6-.2-.7.1-.2.4-.2.7-.3h13c.3 0 .7-.1 1-.3.1-.1.2-.4.2-.5s-.3-.1-.4-.1h-18.8c-.2 0-.5.1-.5.2 0 .2.1.4.2.5.2.1.5.2.7.3h1.4c.2 0 .6.1.7.3.1.2-.1.5-.2.7-4.7.1-9.4.1-14.2.1zm16-30.5c-.6.4-1.3.9-1.8 1.2-1.9 1.1-4.1 1.3-6.2 1.1-1.4-.1-2.1.5-2.1 1.9v2.7c0 2.1 1 3.9 2.8 5.1 3.6 2.5 8.9.4 9.6-3.8.3-2.1.2-4.3.3-6.4-1.3-.4-2-1-2.6-1.8zm-4 27V87c-.7-.2-1.5-.3-2.2-.6s-1.1-1.1-1.2-1.9c-1.5.5-2.9 1.2-4.4 1.5-2 .5-3.1 1.7-3.3 3.7-.1 1.2-.4 2.3-.6 3.6h3.3v-.5c0-.4.1-.6.5-.7.4 0 .5.3.5.6v5.1h5.8c-.2-1.4 0-1.7 1.6-2.2zm-12.1-1.1c-.1.9-.3 1.6-.4 2.3-.1.6.2 1.1.7 1.1 1.1.1 2.1 0 3.2 0v-3.4h-3.5zm14.9-12.3c-1.7.6-3.4.6-5.1.1v1.5c0 1.4.9 2 2.2 1.8-.1-2.1 1.4-1.9 2.8-1.9v-.9c.1-.2.1-.4.1-.6zM120.2 73c-.7.1-1.2.4-1.2 1 0 .5.4 1 1.2.9V73zm15 0v1.8c.7 0 1.2-.4 1.2-1-.1-.3-.5-.8-1.2-.8z"/><path fill="#FFF" d="M129.9 99.1c.1-.2.3-.5.2-.7-.1-.2-.4-.3-.7-.3-.4-.1-1 0-1.4 0-.2 0-.5-.1-.7-.3-.1-.1-.2-.4-.2-.5s.3-.2.5-.2h18.8c.2 0 .4.1.4.1 0 .2 0 .5-.2.5-.3.2-.6.3-1 .3h-13c-.2.1-.6.1-.7.3-.1.2.1.5.2.7-.8.1-1.4.1-2.2.1z"/><path fill="#131A26" d="M137 88.4c1.1 0 1.9.9 1.9 1.8 0 1.1-.9 1.9-1.8 1.8-1 0-1.8-.9-1.8-1.8-.2-1 .6-1.8 1.7-1.8zm0 2.6c.4 0 .7-.3.7-.7 0-.4-.3-.7-.7-.7-.4 0-.7.3-.7.7-.1.4.3.7.7.7z"/><path fill="#FFF" d="M131.6 68.6c.5.9 1.3 1.5 2.5 1.7-.1 2.1.1 4.4-.3 6.4-.7 4.3-6 6.3-9.6 3.8-1.8-1.3-2.7-3-2.8-5.1v-2.7c0-1.4.6-2 2.1-1.9 2.1.2 4.3 0 6.2-1.1.7-.3 1.3-.7 1.9-1.1z"/><path fill="#3BD671" d="M127.6 95.6c-1.5.4-1.7.7-1.5 2.2h-5.8v-5.1c0-.4-.1-.7-.5-.6-.4 0-.5.3-.5.7v.5H116c.2-1.2.5-2.5.6-3.6.2-2.1 1.3-3.3 3.3-3.7 1.5-.3 2.9-1 4.4-1.5.1.9.4 1.6 1.2 1.9.6.3 1.4.4 2.2.6-.1 2.9-.1 5.8-.1 8.6z"/><path fill="#FFF" d="M115.5 94.5h3.5v3.4h-3.2c-.6 0-.9-.4-.7-1.1.1-.7.3-1.5.4-2.3zm14.9-12.3v1.5c-1.4 0-3-.2-2.8 1.9-1.5.3-2.2-.4-2.2-1.8v-1.5c1.7.5 3.3.5 5-.1z"/><path fill="#3BD671" d="M120.2 73v1.9c-.7 0-1.2-.3-1.2-.9.1-.5.5-1 1.2-1zm15 0c.7 0 1.2.4 1.2 1 0 .5-.4 1-1.2 1v-2z"/><path fill="#DF484A" d="M44.9 90.5c-2.9 0-5.2-2.3-5.2-5.2 0-2.9 2.3-5.2 5.2-5.2 2.9 0 5.2 2.3 5.2 5.2.1 2.9-2.3 5.2-5.2 5.2z"/><path fill="none" stroke="#DF484A" stroke-width="1.313" stroke-linecap="round" stroke-linejoin="round" stroke-miterlimit="10" d="M44.6 73.4v4m0 16.9v4.1m12.5-12.6H53m-16.8 0H32m19.8-7L49.4 81m-9.6 9.6L37.5 93m14.3 0l-2.4-2.4M39.8 81l-2.3-2.2"/><path fill="#FFF" d="M27.6 84.8H45v11.3H27.6z"/><path fill="#131A26" d="M15.2 99.1c-1.5-.7-1.8-1.4-1.5-3.1.5-2.6 1-5.1 1.5-7.7.3-1.6 1.2-2.6 2.8-3.1 1.8-.5 3.5-1.2 5.2-1.8.2-.1.5-.3.5-.4 0-.4.2-1-.3-1.4-1.7-1.1-2.8-2.6-3.2-4.5-.1-.3-.1-.5-.2-.9-.3-.1-.6-.1-1-.3-1.1-.4-1.6-1.5-1.3-2.6.1-.3.1-.5.1-.9.1-1.5.1-2.9.3-4.4.1-.9.5-1.7 1-2.6.1-.3.4-.5.9-.4.4.2.4.5.2 1-1.1 1.8-1.2 3.8-1.1 5.9.6 0 1.1-.1 1.3-.9.4-1.2 1.6-1.7 2.8-1.6 1.8.2 3.5.1 5.2-.6.7-.3 1.4-.7 2-1.2.9-.6 1.4-.5 2 .3.4.5.9 1 1.6 1.1.6.1.9.4.9 1.1v1.6c.3.1.6.1 1.1.2-.1-1.8.2-3.6-.3-5.4-.2-.7-.7-1.4-1.5-1.8-.1-.1-.3-.2-.4-.3-2.6-3-8.1-3.7-11.7-.7-.3.3-.7.7-1.2.3-.4-.5.1-.9.4-1.2 1.4-1.2 3-1.8 4.7-2.1.1 0 .3-.1.4-.1h2c1 .3 2 .4 3 .9s1.9 1.3 2.8 1.9c.2.1.3.3.4.4 1.5 1 2.1 2.3 2.2 3.9.1 1.3 0 2.6.1 3.8 0 .6.1 1.4.2 2 .1 1-.4 1.9-1.3 2.2-.3.1-.6.2-1 .2-.3.9-.5 1.7-.9 2.6-.5 1.2-1.4 2-2.5 2.8-.6.4-.3 1-.3 1.5 0 .2.4.4.6.5.5.1 1 .2 1.5.2H44c1.3 0 1.8.5 1.8 1.8v1.6c0 .4-.2.7-.5.6-.2 0-.5-.4-.5-.6-.1-.5 0-1.2 0-1.7 0-.4-.1-.6-.6-.6H28.9c-.4 0-.6.2-.6.6v9.7c0 .5.2.6.6.6h15.3c.4 0 .6-.2.6-.6v-4.7c0-.2 0-.4.1-.5.1-.2.3-.4.5-.4s.4.2.5.4c.1.2.1.4.1.7v5.1c.1 0 .1.1.1.1 1 .2 1.4.5 1.5 1.2.1.7-.3 1.6-1.1 1.9-.1.1-.2.1-.4.2H31.7c-.1-.2-.3-.6-.2-.7.1-.2.4-.2.7-.3h13c.3 0 .7-.1 1-.3.1-.1.2-.4.2-.5 0-.1-.3-.1-.4-.1H27.2c-.2 0-.5.1-.5.2 0 .2.1.4.2.5.2.1.5.2.7.3H29c.2 0 .6.1.7.3.1.2-.1.5-.2.7-4.8.1-9.5.1-14.3.1zm16-30.5c-.6.4-1.3.9-1.8 1.2-1.9 1.1-4.1 1.3-6.2 1.1-1.4-.1-2.1.5-2.1 1.9v2.7c0 2.1 1 3.9 2.8 5.1 3.6 2.5 8.9.4 9.6-3.8.3-2.1.2-4.3.3-6.4-1.4-.4-2.1-.9-2.6-1.8zm-4.1 27.2v-8.6c-.7-.2-1.5-.3-2.2-.6-.7-.3-1.1-1.1-1.2-1.9-1.5.5-2.9 1.2-4.4 1.5-2 .5-3.1 1.7-3.3 3.7-.1 1.2-.4 2.3-.6 3.6h3.3V93c0-.4.1-.6.5-.7.4 0 .5.3.5.6V98h5.8c-.2-1.6 0-1.8 1.6-2.2zm-12-1.2c-.1.9-.3 1.6-.4 2.3-.1.6.2 1.1.7 1.1 1.1.1 2.1 0 3.2 0v-3.4h-3.5zm14.8-12.3c-1.7.6-3.4.6-5.1.1v1.5c0 1.4.9 2 2.2 1.8-.1-2.1 1.4-1.9 2.8-1.9v-.9c.1-.2.1-.4.1-.6zm-10-9.3c-.7.1-1.2.4-1.2 1 0 .5.4 1 1.2.9V73zm14.9.1v1.8c.7 0 1.2-.4 1.2-1-.1-.4-.6-.8-1.2-.8z"/><path fill="#FFF" d="M29.5 99.1c.1-.2.3-.5.2-.7s-.5-.4-.8-.4c-.4-.1-1 0-1.4 0-.2 0-.5-.1-.7-.3-.1-.1-.2-.4-.2-.5 0-.1.3-.2.5-.2h18.8c.2 0 .4.1.4.1 0 .2 0 .5-.2.5-.3.2-.6.3-1 .3h-13c-.2.1-.6.1-.7.3-.1.2.1.5.2.7-.8.2-1.4.2-2.1.2z"/><path fill="#131A26" d="M36.5 88.5c1.1 0 1.9.9 1.9 1.8 0 1.1-.9 1.9-1.9 1.8-1 0-1.8-.9-1.8-1.8-.1-.9.7-1.8 1.8-1.8zm0 2.6c.4 0 .7-.3.7-.7s-.3-.7-.7-.7c-.4 0-.7.3-.7.7s.3.7.7.7z"/><path fill="#FFF" d="M31.2 68.6c.5.9 1.3 1.5 2.5 1.7-.1 2.1.1 4.4-.3 6.4-.7 4.3-6 6.3-9.6 3.8-1.8-1.3-2.7-3-2.8-5.1v-2.7c0-1.4.6-2 2.1-1.9 2.1.2 4.3 0 6.2-1.1.6-.3 1.2-.7 1.9-1.1z"/><path fill="#3BD671" d="M27.1 95.8c-1.5.4-1.7.7-1.5 2.2h-5.8v-5.1c0-.4-.1-.7-.5-.6-.4 0-.5.3-.5.7v.5h-3.3c.2-1.2.5-2.5.6-3.6.2-2.1 1.3-3.3 3.3-3.7 1.5-.3 2.9-1 4.4-1.5.1.9.4 1.6 1.2 1.9.6.3 1.4.4 2.2.6-.1 2.7-.1 5.6-.1 8.6z"/><path fill="#FFF" d="M15.1 94.6h3.5V98h-3.2c-.6 0-.9-.4-.7-1.1 0-.8.3-1.6.4-2.3zm14.8-12.3v1.5c-1.4 0-3-.2-2.8 1.9-1.5.3-2.2-.4-2.2-1.8v-1.5c1.7.6 3.3.6 5-.1z"/><path fill="#3BD671" d="M19.9 73v1.9c-.7 0-1.2-.3-1.2-.9-.1-.5.3-.9 1.2-1zm14.9.1c.7 0 1.2.4 1.2 1 0 .5-.4 1-1.2 1v-2z"/><path fill="#DF484A" d="M89.8 135.3c-2.9 0-5.2-2.3-5.2-5.2 0-2.9 2.3-5.2 5.2-5.2 2.9 0 5.2 2.3 5.2 5.2.1 2.8-2.2 5.2-5.2 5.2z"/><path fill="none" stroke="#DF484A" stroke-width="1.313" stroke-linecap="round" stroke-linejoin="round" stroke-miterlimit="10" d="M89.6 118v4m0 17v4.1m12.5-12.5H98m-16.8 0H77m19.7-7.2l-2.3 2.4m-9.6 9.6l-2.4 2.2m14.3 0l-2.3-2.2m-9.6-9.6l-2.4-2.4"/><path fill="#FFF" d="M72.6 129.4H90v11.3H72.6z"/><path fill="#131A26" d="M63.9 116.7c.6 0 1.1-.1 1.3-.9.4-1.2-.2-8 6.9-8 8.7 0 7.7 6.4 7.7 7v1.6c.3.1.6.1 1.1.2 0 .1 1.2.2 1.3 1.6.1 1-.4 1.9-1.3 2.2-.3.1-.6.2-1 .2-.3.9-.5 1.7-.9 2.6-.5 1.2-1.4 2-2.5 2.8-.6.4-.3 1-.3 1.5 0 .2.4.4.6.5.5.1 1 .2 1.5.2h10.8c1.3 0 1.8.5 1.8 1.8v1.6c0 .4-.2.7-.5.6-.2 0-.5-.4-.5-.6-.1-.5 0-1.2 0-1.7 0-.4-.1-.6-.6-.6H74c-.4 0-.6.2-.6.6v9.7c0 .4.2.6.6.6h15.3c.4 0 .6-.2.6-.6v-4.7c0-.2 0-.4.1-.5.1-.2.3-.4.5-.4s.4.2.5.4c.1.2.1.4.1.7v5.1c.1 0 .1.1.1.1 1 .2 1.4.5 1.5 1.2.1.7-.3 1.6-1.1 1.9-.1.1-.2.1-.4.2H76.8c-.1-.2-.3-.5-.2-.7.1-.2.4-.2.7-.3h13c.3 0 .7-.1 1-.3.1-.1.2-.4.2-.5s-.3-.1-.4-.1H72.3c-.2 0-.5.1-.5.2 0 .2.1.4.2.5.2.1.5.2.7.3h1.4c.2 0 .6.1.7.3.1.2-.1.5-.2.7H60.3c-1.5-.7-1.8-1.4-1.5-3.1.5-2.6 1-5.1 1.5-7.7.3-1.6 1.2-2.6 2.8-3.1 1.8-.5 3.5-1.2 5.2-1.8.2-.1.5-.3.5-.4 0-.4.2-1-.3-1.4-1.7-1.1-2.8-2.6-3.2-4.5-.1-.3-.1-.5-.2-.9-.3-.1-.6-.1-1-.3-1.1-.4-1.6-1.5-1.3-2.6-.2-.1 1.1-1.2 1.1-1.2zm10.4-2.3c-1.9 1.1-4.1 1.3-6.2 1.1-1.4-.1-2.1.5-2.1 1.9v2.7c0 2.1 1 3.9 2.8 5.1 3.6 2.5 8.9.4 9.6-3.8.3-2.1.2-4.3.3-6.4-1.3-.3-3.8-1-4.4-.6zm-2.2 26v-8.6c-.7-.2-1.5-.3-2.2-.6-.7-.3-1.1-1.1-1.2-1.9-1.5.5-2.9 1.2-4.4 1.5-2 .5-3.1 1.7-3.3 3.7-.1 1.2-.4 2.3-.6 3.6h3.3v-.5c0-.4.1-.6.5-.7.4 0 .5.3.5.6v5.1h5.8c-.2-1.5 0-1.8 1.6-2.2zM60 139.2c-.1.9-.3 1.6-.4 2.3-.1.6.2 1.1.7 1.1 1.1.1 2.1 0 3.2 0v-3.4H60zM74.9 127c-1.7.6-3.4.6-5.1.1v1.5c0 1.4.9 2 2.2 1.8-.1-2.1 1.4-1.9 2.8-1.9v-.9c.1-.2.1-.4.1-.6zm-10.1-9.2c-.7.1-1.2.4-1.2 1 0 .5.4 1 1.2.9v-1.9zm15 0v1.8c.7 0 1.2-.4 1.2-1-.2-.5-.6-.8-1.2-.8z"/><path fill="#FFF" d="M74.4 143.7c.1-.2.3-.5.2-.7-.1-.2-.4-.3-.7-.3-.4-.1-1 0-1.4 0-.2 0-.5-.1-.7-.3-.1-.1-.2-.4-.2-.5s.3-.2.5-.2h18.8c.2 0 .4.1.4.1 0 .2 0 .5-.2.5-.3.2-.6.3-1 .3h-13c-.2.1-.6.1-.7.3-.1.2.1.5.2.7-.8.1-1.4.1-2.2.1z"/><path fill="#131A26" d="M81.5 133.1c1.1 0 1.9.9 1.9 1.8 0 1.1-.9 1.9-1.8 1.8-1 0-1.8-.9-1.8-1.8-.2-.9.6-1.8 1.7-1.8zm0 2.6c.4 0 .7-.3.7-.7 0-.4-.3-.7-.7-.7-.4 0-.7.3-.7.7-.1.5.2.7.7.7z"/><path fill="#FFF" d="M78.6 115c-.1 2.1.1 4.4-.3 6.4-.7 4.3-6 6.3-9.6 3.8-1.8-1.3-2.7-3-2.8-5.1 0-.9-.2-1.8 0-2.7.3-1.5.1-9 6.4-8.6 3.5.1 6.2.7 6.3 6.2z"/><path fill="#3BD671" d="M72.1 140.4c-1.5.4-1.7.7-1.5 2.2h-5.8v-5.1c0-.4-.1-.7-.5-.6-.4 0-.5.3-.5.7v.5h-3.3c.2-1.2.5-2.5.6-3.6.2-2.1 1.3-3.3 3.3-3.7 1.5-.3 2.9-1 4.4-1.5.1.9.4 1.6 1.2 1.9.6.3 1.4.4 2.2.6-.1 2.7-.1 5.7-.1 8.6z"/><path fill="#FFF" d="M60 139.2h3.5v3.4h-3.2c-.6 0-.9-.4-.7-1.1.1-.8.3-1.5.4-2.3zM74.9 127v1.5c-1.4 0-3-.2-2.8 1.9-1.5.3-2.2-.4-2.2-1.8v-1.5c1.7.5 3.3.5 5-.1z"/><path fill="#3BD671" d="M64.8 117.8v1.9c-.7 0-1.2-.3-1.2-.9 0-.6.4-1 1.2-1zm15 0c.7 0 1.2.4 1.2 1 0 .5-.4 1-1.2 1v-2z"/><path fill="#131A26" d="M95.1 90.6h1.6c.2 0 .5.1.7.1 5.8.9 9.7 6.7 8.4 12.4-1.4 6-7.5 9.5-13.3 7.6-.1 0-.3-.1-.4 0-1.1.2-2.2.4-3.3.5l-1.8.3h-.4c-.4-.3-.4-.5-.2-1 .4-1 .9-1.9 1.3-3 .1-.2.1-.4-.1-.6-1.2-1.6-1.8-3.4-2-5.3-.3-4.9 2.8-9.4 7.5-10.7.6-.1 1.4-.2 2-.3zm-7.3 19.7h.2c1.3-.2 2.6-.4 3.8-.6.4-.1.9-.1 1.4.1 1.3.4 2.7.5 4.1.3 4.9-.7 8.3-5.1 7.8-10-.5-5.5-6.1-9.4-11.4-7.9-6.5 1.7-9 9.4-4.9 14.6.3.3.3.6.1 1.1-.4.6-.7 1.5-1.1 2.4z"/><path fill="#131A26" d="M94.4 98.9c.4-.6 1-1.4 1.4-2 .3-.4.9-.5 1.3-.4.4.2.7.6.6 1.2 0 .2-.1.4-.1.5 0 .1 0 .2.1.2h.7c.3 0 .5.1.7.1.9.4 1.3 1.2 1.2 2.1-.1.6-.3 1.2-.5 1.7s-.5 1-1 1.4c-.3.2-.6.4-1.1.3-.6-.1-1.2-.1-1.8-.2-.3 0-.5-.1-.9-.2-.1 0-.2-.1-.2-.2s.1-.2.1-.2h.2c.9.2 1.6.3 2.5.3.3 0 .5-.1.7-.3l.3-.3c.5-.7 1-1.5 1.1-2.5.2-1.1-.5-1.8-1.6-1.8h-.7c-.3 0-.5-.3-.5-.6 0-.1 0-.3.1-.4v-.4c0-.2-.2-.4-.5-.4-.2 0-.4 0-.6.2-.6.9-1.2 1.7-1.8 2.6 0 .1-.1.1-.1.2v3.3c0 .6-.4 1.1-1.1 1.1-.6 0-1.1-.4-1.1-1.1v-3.7c0-.6.6-1.2 1.3-1.1.4.1.6.3.9.6.3.1.3 0 .4 0zm-.5.6c0-.5-.4-.7-.9-.6-.2.1-.4.3-.4.5v3.7c0 .5.4.9.9.6.2-.1.4-.3.4-.6v-3.6z"/><path fill="#3BD671" d="M93.9 102.2v1.1c0 .3-.2.5-.4.6-.4.1-.9-.1-.9-.6v-3.7c0-.2.2-.4.4-.5.4-.1.9.1.9.6v2.5zm-.8 1.4c.2 0 .3-.1.3-.3 0-.2-.1-.3-.3-.3-.2 0-.3.1-.3.3.1.1.2.3.3.3z"/><path fill="#131A26" d="M92.9 103.3c0 .2.1.3.3.3.2 0 .3-.1.3-.3 0-.2-.1-.3-.3-.3-.2 0-.3.1-.3.3z"/><path fill="#FFF" d="M65.6 113.2H63v-5.8h6.7v.7c-.5.4-1.1.7-1.6 1.2-.2.2-.4.4-.2.7.2.3.5.3.9.1.3-.2.6-.5 1-.7v3.7h-3c.1-.3.3-.7.4-1.1.2-.4.2-.7-.1-.9-.3-.1-.5 0-.7.4-.4.6-.6 1.2-.8 1.7z"/><path fill="#131A26" d="M69.6 109.1c-.3.2-.6.5-1 .9-.3.2-.6.3-.9 0-.2-.3 0-.5.2-.7.5-.4.7-.6 1.6-1.1.1.5.1.5.1.9zm-4.1 4.1c.2-.5.4-1.1.6-1.6.2-.4.4-.5.7-.4.3.1.3.4.1.9-.2.3-.3.7-.4 1.1h-1z"/><g fill="none" stroke="#738199" stroke-linecap="round" stroke-miterlimit="10"><path d="M89 53l1.8 1.8"/><path stroke-dasharray="4.0441,4.0441" d="M93.7 57.6l10 9.9"/><path d="M105.2 69l1.8 1.7M81.7 56v2.5"/><path stroke-dasharray="4.7,4.7" d="M81.7 63.2v16.5"/><path d="M81.7 82v2.5M73 53l-1.8 1.8"/><path stroke-dasharray="4.0441,4.0441" d="M68.3 57.6l-10.1 9.9"/><path d="M56.8 69L55 70.7"/></g></svg>